<svg version="1.1" id="Layer_1" xmlns="http://www.w3.org/2000/svg" xmlns:xlink="http://www.w3.org/1999/xlink" x="0px" y="0px"
	 width="100%" viewBox="0 0 1131 1600" enable-background="new 0 0 1131 1600" xml:space="preserve">
<path fill="#3C7289" opacity="1.000000" stroke="none" 
	d="
M704.794678,870.949219 
	C695.647766,874.918640 692.840820,874.100342 683.377930,864.385315 
	C682.205261,865.707520 681.053284,866.997620 679.910645,868.296143 
	C673.351196,875.750122 661.822083,874.621826 657.345093,865.791077 
	C655.495850,862.143494 654.745911,857.947083 653.388916,854.037415 
	C652.829285,852.425049 651.987915,850.910522 650.186096,849.442200 
	C649.707031,853.935852 648.715271,858.449646 648.890686,862.917603 
	C649.072144,867.537781 647.993408,870.542480 643.352295,872.081421 
	C638.173889,873.798340 633.122559,873.104553 630.019043,869.532959 
	C628.526550,867.815369 627.401917,865.777954 625.875977,863.541321 
	C611.378662,875.105347 596.952942,878.675354 582.405518,861.970642 
	C580.164490,867.328491 576.550842,871.580627 570.357483,872.798218 
	C563.659424,874.115112 559.192322,870.941101 556.523987,866.620178 
	C550.485046,868.911194 545.225525,871.797180 539.629272,872.795776 
	C533.179504,873.946716 528.827942,869.538025 525.405029,863.674255 
	C520.332092,869.700256 514.442444,874.365417 506.554169,872.660034 
	C502.873688,871.864380 499.739044,868.543884 496.180115,865.870605 
	C495.961426,865.073792 495.819611,864.832886 495.577881,864.650757 
	C495.577881,864.650757 495.441620,864.184937 495.304504,863.522583 
	C495.429718,855.020508 495.692047,847.180847 495.995056,838.125977 
	C493.846405,842.216248 492.162598,845.421570 490.478821,848.626892 
	C490.890778,848.618408 491.302765,848.609985 491.714722,848.601562 
	C492.078308,851.449585 492.817657,854.315857 492.680115,857.139465 
	C492.579803,859.198364 491.323456,861.201050 490.582520,863.228821 
	C490.582520,863.228821 490.366730,863.447510 490.147034,863.671875 
	C489.745209,864.071594 489.664795,864.285217 489.686096,864.537170 
	C483.470428,871.841553 475.104462,873.601868 466.190674,872.965759 
	C456.572662,872.279297 450.545959,866.546509 447.426544,856.625549 
	C445.471741,859.086853 444.216278,860.980652 442.657318,862.578308 
	C434.107635,871.340210 423.782532,874.785706 411.738525,872.268494 
	C404.006592,870.652527 399.145966,865.685913 398.033752,858.883728 
	C396.833984,851.546021 399.797668,845.497498 406.654541,841.277344 
	C407.492920,840.761353 408.316528,840.221436 409.552612,839.434204 
	C408.864197,838.241760 408.306091,837.107910 407.599030,836.076233 
	C401.097382,826.589539 402.573578,815.779358 411.400269,808.438782 
	C420.410950,800.945068 435.391418,799.533264 443.554871,805.408142 
	C452.081512,811.544495 451.267395,823.552673 441.971222,828.391479 
	C440.264648,829.279724 438.463715,829.986755 436.332825,830.945435 
	C440.446594,834.682495 444.182007,838.075867 448.205170,841.730652 
	C452.167999,832.661072 458.005615,825.079590 468.217010,822.168701 
	C474.808838,820.289673 481.362091,820.247681 488.232544,823.561646 
	C490.600098,825.937012 492.456207,827.974670 495.271759,831.065735 
	C496.933990,827.997681 498.651520,825.587341 499.580017,822.903992 
	C500.540100,820.129272 500.392426,816.967651 501.377563,814.206543 
	C502.087921,812.215637 503.478394,809.911743 505.227234,808.946777 
	C511.561127,805.452209 519.295288,807.816284 523.230835,813.970520 
	C523.235962,814.417358 523.241150,814.864258 523.081238,815.956055 
	C522.301208,818.301331 521.549988,819.966675 521.103149,821.710022 
	C520.425659,824.353210 522.116699,824.382202 523.985291,824.057373 
	C524.361694,824.222839 524.738037,824.388306 525.547852,824.921143 
	C526.593323,826.172058 527.205383,827.055542 527.817505,827.939026 
	C528.556641,827.161621 529.726074,826.492554 529.954224,825.586426 
	C530.641968,822.855774 530.920959,820.024963 531.435730,817.247375 
	C533.074036,808.405457 541.453979,804.526245 549.412048,809.041992 
	C553.058655,811.111206 555.242554,813.894775 552.830750,818.414001 
	C552.008301,819.955078 551.812927,821.830750 551.328613,823.562195 
	C557.041992,824.920227 558.020813,826.013855 557.835938,830.563171 
	C557.598694,836.400635 555.684753,838.204895 547.840210,839.514954 
	C547.369995,845.123230 546.888062,850.871704 546.343445,857.367126 
	C550.109741,855.780090 552.517944,854.765320 554.881042,853.769531 
	C555.440002,850.974487 556.018799,848.211609 556.542175,845.438354 
	C557.951599,837.970520 559.337341,830.498291 560.831726,822.674316 
	C560.914673,820.553467 560.898315,818.786072 560.933960,816.669678 
	C560.621460,815.212280 560.257141,814.104004 559.892761,812.995728 
	C562.000488,810.548462 563.648438,807.259888 566.301270,805.810181 
	C574.561646,801.296387 583.120483,806.248291 583.074280,815.664490 
	C583.042786,822.081665 581.667786,828.517639 580.602051,834.896545 
	C579.698792,840.302979 578.350647,845.634094 577.252441,851.009399 
	C576.673218,853.844116 577.167603,855.756226 580.738403,854.641907 
	C584.665039,825.063354 598.918457,815.675293 626.378052,825.191040 
	C626.675598,823.578979 626.950500,822.064697 627.234985,820.552124 
	C628.307007,814.851807 630.445374,809.793335 635.221924,806.079834 
	C643.368652,799.746277 653.098877,802.807068 656.044983,812.713562 
	C656.366577,813.794922 656.859558,814.825317 657.302612,815.954834 
	C661.730408,812.449646 661.950012,810.152466 658.792175,802.470459 
	C668.650818,800.406738 678.999512,803.662415 681.163696,810.632812 
	C684.947021,822.817932 674.731201,827.324646 667.448792,833.248901 
	C670.111267,839.543457 672.762573,845.811584 675.413818,852.079712 
	C676.038147,852.178284 676.662537,852.276855 677.286865,852.375488 
	C679.109314,848.858704 681.396423,845.499573 682.654968,841.791443 
	C685.076172,834.657288 688.192810,828.115234 695.143188,824.486023 
	C697.846863,823.074219 701.319763,821.532715 704.036682,822.076538 
	C710.044800,823.279114 715.678772,823.062134 721.715027,822.220825 
	C725.362854,821.712402 729.462158,824.442444 734.719360,826.162598 
	C740.764282,821.479675 748.573059,818.579529 755.594055,825.917358 
	C760.990540,824.638428 765.696228,823.186523 770.506958,822.607178 
	C771.794800,822.452148 773.881592,824.692261 774.780090,826.293640 
	C778.277161,832.527039 775.433289,843.027344 769.494324,846.834717 
	C765.576660,849.346130 761.378113,848.379822 757.650146,842.996399 
	C756.734436,845.702026 755.622253,847.579346 755.565979,849.487732 
	C755.483521,852.280396 756.217773,855.089478 756.499084,857.902039 
	C757.476013,867.669250 751.308533,873.714844 740.858887,872.391357 
	C738.531738,870.695251 736.817749,869.286255 735.103760,867.877258 
	C735.103760,867.877258 735.025085,867.986694 735.003784,867.538330 
	C734.612610,863.338989 733.773376,859.560730 733.988770,855.843628 
	C734.274109,850.919739 735.383972,846.043640 736.355103,841.097412 
	C736.526672,840.783813 736.482605,840.519775 736.438538,840.255798 
	C736.283752,840.493896 736.128967,840.732056 735.613281,840.915161 
	C733.792786,840.203918 732.333313,839.547668 730.201782,838.589294 
	C729.189148,843.245544 728.048950,847.496216 727.469910,851.822083 
	C727.317993,852.956482 728.633850,855.020813 729.745728,855.455566 
	C733.302612,856.846375 733.608337,858.921936 732.075745,861.959717 
	C731.261719,863.573242 730.633850,865.280701 729.921875,866.945740 
	C729.921875,866.945740 729.987610,867.002258 729.653931,867.092285 
	C726.519104,869.036133 723.717957,870.890015 720.916809,872.743835 
	C718.589478,872.790588 716.262207,872.837280 713.295593,872.576660 
	C709.950684,872.336182 708.359009,865.769104 704.794678,870.949219 
M654.822632,844.833618 
	C656.206787,850.312988 657.247192,855.909119 659.059814,861.242859 
	C661.461609,868.310303 666.474609,871.041138 672.367493,869.213562 
	C678.322693,867.366638 681.970093,860.774658 680.594116,854.345337 
	C674.636780,856.782593 673.073486,856.007202 670.477783,849.923523 
	C667.905884,843.895874 665.099487,837.968262 662.270020,831.718689 
	C663.879089,830.786377 666.604492,829.499146 668.987732,827.746521 
	C671.513916,825.889038 673.998596,823.826416 675.998657,821.433167 
	C680.119263,816.502441 679.082520,810.219727 673.643860,807.456970 
	C670.938965,806.082825 667.776306,805.609741 664.650940,804.678467 
	C664.137451,816.033875 658.394653,827.223328 653.185425,829.144775 
	C653.185425,824.849243 653.431946,820.222046 653.128601,815.631104 
	C652.654053,808.449463 647.423950,805.096863 640.505371,807.220642 
	C634.978027,808.917419 630.848877,815.369568 631.375122,820.887146 
	C633.217773,820.087463 635.202820,819.226013 637.187805,818.364563 
	C637.756226,820.653992 639.210144,823.151123 638.730774,825.194824 
	C637.144836,831.956238 634.670288,838.504028 632.909241,845.231262 
	C631.616638,850.168823 630.402527,855.226624 630.074219,860.290466 
	C629.705933,865.972168 634.027466,869.986877 639.257446,869.876160 
	C643.540649,869.785461 644.607666,867.492859 645.367371,861.104065 
	C646.284607,853.390137 648.080627,845.780701 649.496338,838.126038 
	C650.165161,838.123352 650.833984,838.120667 651.502747,838.117981 
	C652.551636,840.100830 653.600464,842.083679 654.822632,844.833618 
M416.726440,839.791931 
	C419.791382,842.335754 423.183807,844.588562 425.799438,847.531677 
	C427.388489,849.319702 428.992218,852.553406 428.398834,854.453613 
	C427.655060,856.835266 424.946716,859.450867 422.547852,860.170410 
	C420.946442,860.650757 417.297729,858.479309 416.511322,856.655518 
	C414.742157,852.552673 414.183655,847.927856 413.126831,843.492004 
	C406.345032,844.068359 402.819000,847.186218 401.389374,853.983398 
	C400.334778,858.997498 403.497955,864.943542 408.617004,867.569946 
	C420.501343,873.667175 439.501434,866.229675 444.260162,853.617676 
	C446.348877,848.081970 444.933044,842.410095 440.149078,838.901489 
	C436.544952,836.258301 432.577942,834.115479 428.843231,831.643005 
	C425.309540,829.303650 422.250763,826.628235 421.921997,821.896118 
	C421.644104,817.895569 423.293304,815.349976 427.192749,814.767334 
	C431.122559,814.180115 432.936005,816.930603 433.769318,820.185608 
	C434.289185,822.216370 434.119598,824.423706 434.258392,826.535950 
	C440.708405,826.471252 444.700745,823.604370 445.812500,818.411316 
	C446.720306,814.170837 444.259369,809.144287 440.270264,807.091248 
	C431.605835,802.631836 416.604187,806.150574 410.728943,814.020325 
	C404.312408,822.615234 406.178101,831.303589 416.726440,839.791931 
M725.074646,866.683838 
	C726.589844,864.532043 728.105042,862.380249 729.620239,860.228455 
	C724.917297,861.652222 723.485046,859.482849 724.015869,856.324097 
	C725.359680,848.329224 726.908142,840.338074 729.007141,832.515076 
	C729.921814,829.105896 728.990356,827.490906 726.266785,826.179016 
	C720.981873,823.633179 717.040833,825.304810 713.665344,831.487671 
	C707.141968,823.533813 700.297424,823.194153 692.938660,830.459351 
	C685.153748,838.145325 682.827515,852.817444 687.769958,863.060242 
	C691.386780,870.555847 699.764832,871.767517 705.313599,865.575317 
	C706.392517,864.371216 707.360413,863.067566 708.487976,861.675842 
	C712.915100,870.680725 716.295715,871.769165 725.074646,866.683838 
M625.204041,839.497559 
	C626.299133,831.924988 623.274170,826.532776 616.653503,824.900391 
	C606.851013,822.483337 598.402161,825.572876 591.813232,832.734436 
	C585.433105,839.669128 582.526428,848.058167 585.553284,857.532532 
	C588.072876,865.419128 593.941711,869.556641 601.994751,869.686951 
	C610.013184,869.816772 617.676758,868.063782 622.143799,860.311584 
	C623.237183,858.414307 623.462830,856.017090 624.438965,852.629883 
	C617.900757,857.606812 612.610107,861.587891 605.544067,858.502747 
	C602.289490,857.081848 600.428467,854.521362 601.101624,850.614380 
	C614.784851,853.477234 620.060120,851.163940 625.204041,839.497559 
M472.747986,869.382874 
	C484.451660,867.433105 489.899567,862.311401 489.514862,853.457886 
	C483.818939,857.026367 478.427490,862.513916 471.099518,858.130005 
	C468.892609,856.809692 467.766266,853.683167 466.144897,851.384033 
	C466.586853,851.025940 467.028778,850.667847 467.470703,850.309753 
	C468.861389,850.722656 470.230469,851.241333 471.646423,851.530457 
	C478.455780,852.920837 484.089142,850.996521 488.408356,845.454956 
	C491.677368,841.260864 492.593018,834.549927 490.093597,830.481689 
	C486.466675,824.578308 480.644653,823.576294 474.398621,824.248474 
	C463.178375,825.455933 453.920990,833.754456 451.277313,844.713501 
	C447.644989,859.770935 456.831390,870.833252 472.747986,869.382874 
M516.652710,826.269226 
	C517.399170,823.207214 518.472473,820.175415 518.759705,817.070923 
	C518.912292,815.421387 518.223816,812.925598 517.017151,812.052002 
	C511.840118,808.304077 504.926880,811.387939 503.960663,817.666687 
	C503.011444,823.835083 502.834900,830.321899 496.130676,833.665894 
	C495.984161,833.738953 496.066223,834.270142 496.029816,834.740234 
	C497.515106,835.066223 499.012329,835.394897 500.209076,835.657593 
	C499.444611,843.801941 498.316742,851.546936 498.114624,859.315979 
	C497.951416,865.589233 502.589081,869.789490 508.418243,869.855347 
	C515.153076,869.931458 521.142395,865.211121 521.767090,859.334839 
	C513.231506,860.846436 511.586487,859.190552 512.736145,850.254517 
	C513.160156,846.958435 513.806824,843.669617 513.929382,840.361816 
	C514.074463,836.446045 515.389832,834.441101 519.660461,835.252258 
	C523.246033,835.933228 523.488403,833.000793 523.355713,830.843445 
	C523.286804,829.723022 521.502747,828.524231 520.260376,827.721619 
	C519.367188,827.144531 518.088440,827.164307 516.652710,826.269226 
M543.919189,845.409668 
	C544.515930,842.042969 545.112671,838.676270 545.636597,835.720276 
	C548.848999,834.240112 553.144775,837.431091 554.172241,831.929932 
	C555.357483,825.583557 549.134827,828.931519 547.282715,826.308289 
	C548.104431,823.168152 549.158081,820.007263 549.674438,816.760864 
	C549.893860,815.381592 549.235657,812.689270 548.550415,812.539307 
	C545.281799,811.823914 541.729797,811.116455 538.562683,811.774048 
	C537.008240,812.096863 535.418640,815.256592 534.977722,817.368835 
	C533.676758,823.601990 533.669312,830.306824 526.781372,833.708374 
	C526.533508,833.830811 526.566650,834.522339 526.458984,834.991211 
	C528.024780,835.189758 529.435608,835.368713 531.298767,835.604980 
	C530.967468,838.188843 530.606140,840.447449 530.400391,842.720093 
	C529.863037,848.657837 528.920715,854.610901 529.035706,860.540466 
	C529.142090,866.029785 534.232361,870.033264 539.484863,869.822327 
	C546.347778,869.546814 552.378601,864.589539 552.472717,859.146545 
	C544.536682,861.167114 542.627258,859.561829 543.164307,851.223083 
	C543.270569,849.572815 543.614929,847.937927 543.919189,845.409668 
M568.373169,869.807495 
	C575.573242,867.835205 577.998291,865.397034 578.536316,859.383484 
	C574.620544,861.857483 573.302246,859.960938 573.265991,856.258728 
	C573.251465,854.777649 573.423950,853.271790 573.705078,851.814575 
	C575.589722,842.044922 577.702942,832.314819 579.345337,822.505554 
	C579.875549,819.338623 579.756409,815.834045 578.967224,812.729797 
	C577.831055,808.260254 574.024353,807.051025 569.888428,807.924927 
	C565.917175,808.764099 563.926208,811.255249 563.908569,815.738708 
	C563.885132,821.674744 563.386597,827.657532 562.492859,833.529053 
	C561.421570,840.567017 559.463928,847.468628 558.352966,854.502441 
	C556.909851,863.639404 559.547363,867.683044 568.373169,869.807495 
M744.859314,825.261230 
	C739.414246,826.651245 735.340576,829.424622 734.134155,835.563965 
	C739.704773,834.613342 740.532043,835.264099 739.886902,840.761841 
	C739.385376,845.035889 738.296509,849.237915 737.590027,853.492188 
	C737.210693,855.776367 736.872803,858.104797 736.891052,860.410217 
	C736.934204,865.884155 739.951965,869.252075 744.726257,869.475647 
	C749.051086,869.678101 753.045471,865.828613 753.074524,860.768311 
	C753.098206,856.646790 751.611328,852.394348 752.256775,848.438538 
	C752.743469,845.455505 755.084290,842.240784 757.546509,840.385559 
	C758.488708,839.675537 762.062195,842.457397 765.766602,844.314880 
	C769.887878,843.461182 773.384216,838.515137 772.983887,831.924377 
	C772.634033,826.164856 767.939026,823.542236 763.361816,826.918457 
	C760.397217,829.105225 758.068970,832.154663 754.855164,835.429321 
	C754.130066,829.197266 751.911865,825.112244 744.859314,825.261230 
M522.649475,839.471069 
	C520.847534,839.864136 517.613708,839.976501 517.472839,840.695190 
	C516.452698,845.898438 516.057373,851.224182 515.401978,857.065796 
	C519.304382,855.856873 522.048767,855.006714 525.437378,853.956970 
	C525.984680,849.610291 526.610901,844.637085 527.286133,839.274170 
	C525.630005,839.425598 524.533386,839.525879 522.649475,839.471069 
M425.206512,854.351318 
	C425.473785,849.146240 421.363892,847.909607 417.093811,844.856628 
	C417.715118,848.794189 417.823273,851.441345 418.588715,853.882507 
	C419.812775,857.786133 421.495056,858.014709 425.206512,854.351318 
M425.645996,819.294800 
	C424.196167,823.337463 425.993958,825.836609 429.458374,827.718445 
	C432.075104,821.289124 430.977386,818.428345 425.645996,819.294800 
M629.231506,826.192444 
	C628.536560,826.835205 627.162048,827.604187 627.254272,828.100708 
	C627.979736,832.006165 628.985718,835.859558 629.905273,839.728943 
	C630.285767,839.832703 630.666260,839.936462 631.046692,840.040222 
	C632.467896,835.915222 633.889038,831.790283 635.441223,827.285034 
	C633.089661,826.840820 631.683838,826.575317 629.231506,826.192444 
M626.000000,848.500000 
	C626.200012,848.633362 626.399963,848.766663 626.599976,848.900024 
	C626.566650,848.600037 626.533325,848.299988 626.000000,848.500000 
M628.000000,844.500000 
	C628.200012,844.633362 628.399963,844.766663 628.599915,844.900024 
	C628.566589,844.600037 628.533264,844.299988 628.000000,844.500000 
z"/>
<path fill="#E6F2F6" opacity="1.000000" stroke="none" 
	d="
M560.732483,823.027771 
	C559.337341,830.498291 557.951599,837.970520 556.542175,845.438354 
	C556.018799,848.211609 555.440002,850.974487 554.881042,853.769531 
	C552.517944,854.765320 550.109741,855.780090 546.343445,857.367126 
	C546.888062,850.871704 547.369995,845.123230 547.840210,839.514954 
	C555.684753,838.204895 557.598694,836.400635 557.835938,830.563171 
	C558.020813,826.013855 557.041992,824.920227 551.328613,823.562195 
	C551.812927,821.830750 552.008301,819.955078 552.830750,818.414001 
	C555.242554,813.894775 553.058655,811.111206 549.412048,809.041992 
	C541.453979,804.526245 533.074036,808.405457 531.435730,817.247375 
	C530.920959,820.024963 530.641968,822.855774 529.954224,825.586426 
	C529.726074,826.492554 528.556641,827.161621 527.817505,827.939026 
	C527.205383,827.055542 526.593323,826.172058 525.852539,824.971558 
	C528.562805,822.265930 530.917297,820.053467 528.663879,815.607239 
	C527.981445,814.260803 530.173035,811.457764 531.248718,808.832397 
	C529.295288,807.511719 527.645996,805.407104 531.548035,803.446045 
	C532.274841,803.080811 534.159424,803.318176 534.221985,803.582275 
	C535.620911,809.490723 539.693665,805.562561 542.556702,805.931458 
	C545.171692,806.268555 547.783997,806.629150 550.403015,806.931641 
	C551.558533,807.065125 552.731445,807.042419 553.889526,807.159668 
	C555.182434,807.290710 556.467346,807.500061 559.016785,807.846863 
	C556.935242,809.611816 556.052246,810.360474 554.337524,811.814392 
	C556.523132,812.355469 557.831421,812.679321 559.516235,812.999451 
	C560.257141,814.104004 560.621460,815.212280 560.540833,816.659058 
	C558.148438,817.361084 556.201050,817.724731 554.253662,818.088379 
	C554.125732,818.759888 553.997803,819.431458 553.869934,820.102966 
	C556.157410,821.077942 558.444946,822.052856 560.732483,823.027771 
z"/>
<path fill="#E6F2F6" opacity="1.000000" stroke="none" 
	d="
M523.458252,813.713867 
	C519.295288,807.816284 511.561127,805.452209 505.227234,808.946777 
	C503.478394,809.911743 502.087921,812.215637 501.377563,814.206543 
	C500.392426,816.967651 500.540100,820.129272 499.580017,822.903992 
	C498.651520,825.587341 496.933990,827.997681 495.271759,831.065735 
	C492.456207,827.974670 490.600098,825.937012 488.569244,823.594604 
	C495.072449,822.347534 497.766602,819.984009 499.036835,813.742188 
	C499.879272,809.602661 502.715942,807.893372 506.445374,806.633545 
	C508.571594,805.915283 510.319427,804.076965 511.974792,802.183960 
	C516.152283,802.458801 523.559937,809.822937 523.458252,813.713867 
M495.623413,823.790955 
	C495.263397,823.742554 494.903412,823.694153 494.543396,823.645752 
	C494.540985,823.903259 494.538544,824.160767 494.536102,824.418274 
	C494.897064,824.378479 495.257996,824.338684 495.623413,823.790955 
z"/>
<path fill="#E6F2F6" opacity="1.000000" stroke="none" 
	d="
M730.304565,866.972534 
	C730.633850,865.280701 731.261719,863.573242 732.075745,861.959717 
	C733.608337,858.921936 733.302612,856.846375 729.745728,855.455566 
	C728.633850,855.020813 727.317993,852.956482 727.469910,851.822083 
	C728.048950,847.496216 729.189148,843.245544 730.201782,838.589294 
	C732.333313,839.547668 733.792786,840.203918 735.654480,840.959473 
	C736.056702,841.058777 736.139526,841.146973 736.139526,841.146973 
	C735.383972,846.043640 734.274109,850.919739 733.988770,855.843628 
	C733.773376,859.560730 734.612610,863.338989 735.057861,867.498108 
	C733.651184,867.603943 732.169128,867.301697 730.304565,866.972534 
z"/>
<path fill="#A0E0F9" opacity="1.000000" stroke="none" 
	d="
M491.028107,863.383484 
	C491.323456,861.201050 492.579803,859.198364 492.680115,857.139465 
	C492.817657,854.315857 492.078308,851.449585 491.714722,848.601562 
	C491.302765,848.609985 490.890778,848.618408 490.478821,848.626892 
	C492.162598,845.421570 493.846405,842.216248 495.995056,838.125977 
	C495.692047,847.180847 495.429718,855.020508 495.192566,863.307251 
	C493.969788,863.682251 492.721741,863.610229 491.028107,863.383484 
z"/>
<path fill="#E6F2F6" opacity="1.000000" stroke="none" 
	d="
M721.097107,873.030518 
	C723.717957,870.890015 726.519104,869.036133 729.632935,867.054382 
	C729.710327,872.656799 725.189758,872.574524 721.097107,873.030518 
z"/>
<path fill="#E6F2F6" opacity="1.000000" stroke="none" 
	d="
M523.953369,823.704773 
	C522.116699,824.382202 520.425659,824.353210 521.103149,821.710022 
	C521.549988,819.966675 522.301208,818.301331 523.144836,816.285889 
	C523.719116,816.959534 524.309448,817.937805 524.352356,818.939575 
	C524.414978,820.401550 524.084351,821.880493 523.953369,823.704773 
z"/>
<path fill="#E6F2F6" opacity="1.000000" stroke="none" 
	d="
M705.189331,870.973572 
	C708.359009,865.769104 709.950684,872.336182 712.859863,872.536133 
	C711.739075,872.856628 710.347473,873.187622 709.109192,872.886963 
	C707.855164,872.582520 706.752808,871.653381 705.189331,870.973572 
z"/>
<path fill="#E6F2F6" opacity="1.000000" stroke="none" 
	d="
M735.065369,868.315125 
	C736.817749,869.286255 738.531738,870.695251 740.451904,872.378906 
	C737.454773,873.268188 734.410522,873.652954 735.065369,868.315125 
z"/>
<path fill="#A0E0F9" opacity="1.000000" stroke="none" 
	d="
M489.920776,864.537415 
	C489.664795,864.285217 489.745209,864.071594 490.078339,863.809326 
	C490.508118,864.022278 490.483490,864.294067 489.920776,864.537415 
z"/>
<path fill="#A0E0F9" opacity="1.000000" stroke="none" 
	d="
M495.497101,864.873718 
	C495.819611,864.832886 495.961426,865.073792 495.991577,865.583862 
	C495.644745,865.680725 495.456909,865.448181 495.497101,864.873718 
z"/>
<path fill="#A0E0F9" opacity="1.000000" stroke="none" 
	d="
M654.735962,844.450073 
	C653.600464,842.083679 652.551636,840.100830 651.502747,838.117981 
	C650.833984,838.120667 650.165161,838.123352 649.496338,838.126038 
	C648.080627,845.780701 646.284607,853.390137 645.367371,861.104065 
	C644.607666,867.492859 643.540649,869.785461 639.257446,869.876160 
	C634.027466,869.986877 629.705933,865.972168 630.074219,860.290466 
	C630.402527,855.226624 631.616638,850.168823 632.909241,845.231262 
	C634.670288,838.504028 637.144836,831.956238 638.730774,825.194824 
	C639.210144,823.151123 637.756226,820.653992 637.187805,818.364563 
	C635.202820,819.226013 633.217773,820.087463 631.375122,820.887146 
	C630.848877,815.369568 634.978027,808.917419 640.505371,807.220642 
	C647.423950,805.096863 652.654053,808.449463 653.128601,815.631104 
	C653.431946,820.222046 653.185425,824.849243 653.185425,829.144775 
	C658.394653,827.223328 664.137451,816.033875 664.650940,804.678467 
	C667.776306,805.609741 670.938965,806.082825 673.643860,807.456970 
	C679.082520,810.219727 680.119263,816.502441 675.998657,821.433167 
	C673.998596,823.826416 671.513916,825.889038 668.987732,827.746521 
	C666.604492,829.499146 663.879089,830.786377 662.270020,831.718689 
	C665.099487,837.968262 667.905884,843.895874 670.477783,849.923523 
	C673.073486,856.007202 674.636780,856.782593 680.594116,854.345337 
	C681.970093,860.774658 678.322693,867.366638 672.367493,869.213562 
	C666.474609,871.041138 661.461609,868.310303 659.059814,861.242859 
	C657.247192,855.909119 656.206787,850.312988 654.735962,844.450073 
z"/>
<path fill="#A0E0F9" opacity="1.000000" stroke="none" 
	d="
M416.447937,839.573853 
	C406.178101,831.303589 404.312408,822.615234 410.728943,814.020325 
	C416.604187,806.150574 431.605835,802.631836 440.270264,807.091248 
	C444.259369,809.144287 446.720306,814.170837 445.812500,818.411316 
	C444.700745,823.604370 440.708405,826.471252 434.258392,826.535950 
	C434.119598,824.423706 434.289185,822.216370 433.769318,820.185608 
	C432.936005,816.930603 431.122559,814.180115 427.192749,814.767334 
	C423.293304,815.349976 421.644104,817.895569 421.921997,821.896118 
	C422.250763,826.628235 425.309540,829.303650 428.843231,831.643005 
	C432.577942,834.115479 436.544952,836.258301 440.149078,838.901489 
	C444.933044,842.410095 446.348877,848.081970 444.260162,853.617676 
	C439.501434,866.229675 420.501343,873.667175 408.617004,867.569946 
	C403.497955,864.943542 400.334778,858.997498 401.389374,853.983398 
	C402.819000,847.186218 406.345032,844.068359 413.126831,843.492004 
	C414.183655,847.927856 414.742157,852.552673 416.511322,856.655518 
	C417.297729,858.479309 420.946442,860.650757 422.547852,860.170410 
	C424.946716,859.450867 427.655060,856.835266 428.398834,854.453613 
	C428.992218,852.553406 427.388489,849.319702 425.799438,847.531677 
	C423.183807,844.588562 419.791382,842.335754 416.447937,839.573853 
z"/>
<path fill="#A0E0F9" opacity="1.000000" stroke="none" 
	d="
M724.782715,866.913818 
	C716.295715,871.769165 712.915100,870.680725 708.487976,861.675842 
	C707.360413,863.067566 706.392517,864.371216 705.313599,865.575317 
	C699.764832,871.767517 691.386780,870.555847 687.769958,863.060242 
	C682.827515,852.817444 685.153748,838.145325 692.938660,830.459351 
	C700.297424,823.194153 707.141968,823.533813 713.665344,831.487671 
	C717.040833,825.304810 720.981873,823.633179 726.266785,826.179016 
	C728.990356,827.490906 729.921814,829.105896 729.007141,832.515076 
	C726.908142,840.338074 725.359680,848.329224 724.015869,856.324097 
	C723.485046,859.482849 724.917297,861.652222 729.620239,860.228455 
	C728.105042,862.380249 726.589844,864.532043 724.782715,866.913818 
M710.507935,836.013489 
	C707.209900,832.784424 704.152344,833.855713 702.473816,837.362732 
	C700.737793,840.989868 699.598877,845.054321 699.038147,849.045410 
	C698.576294,852.333252 698.039001,857.028931 702.173462,858.057068 
	C706.563904,859.148926 708.317017,854.493469 709.477600,851.353271 
	C711.197083,846.700928 715.277771,841.959595 710.507935,836.013489 
z"/>
<path fill="#A0E0F9" opacity="1.000000" stroke="none" 
	d="
M625.147827,839.880493 
	C620.060120,851.163940 614.784851,853.477234 601.101624,850.614380 
	C600.428467,854.521362 602.289490,857.081848 605.544067,858.502747 
	C612.610107,861.587891 617.900757,857.606812 624.438965,852.629883 
	C623.462830,856.017090 623.237183,858.414307 622.143799,860.311584 
	C617.676758,868.063782 610.013184,869.816772 601.994751,869.686951 
	C593.941711,869.556641 588.072876,865.419128 585.553284,857.532532 
	C582.526428,848.058167 585.433105,839.669128 591.813232,832.734436 
	C598.402161,825.572876 606.851013,822.483337 616.653503,824.900391 
	C623.274170,826.532776 626.299133,831.924988 625.147827,839.880493 
M602.251709,837.058655 
	C602.249207,839.899292 601.115967,843.678711 602.510986,845.359009 
	C604.565918,847.833923 610.069031,845.472229 611.895447,841.758972 
	C613.364807,838.771790 614.774658,835.154236 611.400146,832.803711 
	C607.254211,829.915710 604.826111,833.377197 602.251709,837.058655 
z"/>
<path fill="#A0E0F9" opacity="1.000000" stroke="none" 
	d="
M472.337006,869.480835 
	C456.831390,870.833252 447.644989,859.770935 451.277313,844.713501 
	C453.920990,833.754456 463.178375,825.455933 474.398621,824.248474 
	C480.644653,823.576294 486.466675,824.578308 490.093597,830.481689 
	C492.593018,834.549927 491.677368,841.260864 488.408356,845.454956 
	C484.089142,850.996521 478.455780,852.920837 471.646423,851.530457 
	C470.230469,851.241333 468.861389,850.722656 467.470703,850.309753 
	C467.028778,850.667847 466.586853,851.025940 466.144897,851.384033 
	C467.766266,853.683167 468.892609,856.809692 471.099518,858.130005 
	C478.427490,862.513916 483.818939,857.026367 489.514862,853.457886 
	C489.899567,862.311401 484.451660,867.433105 472.337006,869.480835 
M467.300751,839.006836 
	C467.019012,840.789185 466.737274,842.571533 466.392792,844.750854 
	C467.927155,845.219055 469.304047,845.977539 470.693146,846.000610 
	C475.162903,846.074951 477.898560,843.523560 478.814392,839.364624 
	C479.399048,836.709778 480.219727,833.303589 476.521973,832.124084 
	C472.294952,830.775757 470.195129,833.948425 468.242676,836.955566 
	C467.972534,837.371643 467.797394,837.849426 467.300751,839.006836 
z"/>
<path fill="#A0E0F9" opacity="1.000000" stroke="none" 
	d="
M516.817200,826.593506 
	C518.088440,827.164307 519.367188,827.144531 520.260376,827.721619 
	C521.502747,828.524231 523.286804,829.723022 523.355713,830.843445 
	C523.488403,833.000793 523.246033,835.933228 519.660461,835.252258 
	C515.389832,834.441101 514.074463,836.446045 513.929382,840.361816 
	C513.806824,843.669617 513.160156,846.958435 512.736145,850.254517 
	C511.586487,859.190552 513.231506,860.846436 521.767090,859.334839 
	C521.142395,865.211121 515.153076,869.931458 508.418243,869.855347 
	C502.589081,869.789490 497.951416,865.589233 498.114624,859.315979 
	C498.316742,851.546936 499.444611,843.801941 500.209076,835.657593 
	C499.012329,835.394897 497.515106,835.066223 496.029816,834.740234 
	C496.066223,834.270142 495.984161,833.738953 496.130676,833.665894 
	C502.834900,830.321899 503.011444,823.835083 503.960663,817.666687 
	C504.926880,811.387939 511.840118,808.304077 517.017151,812.052002 
	C518.223816,812.925598 518.912292,815.421387 518.759705,817.070923 
	C518.472473,820.175415 517.399170,823.207214 516.817200,826.593506 
z"/>
<path fill="#A0E0F9" opacity="1.000000" stroke="none" 
	d="
M543.884338,845.852783 
	C543.614929,847.937927 543.270569,849.572815 543.164307,851.223083 
	C542.627258,859.561829 544.536682,861.167114 552.472717,859.146545 
	C552.378601,864.589539 546.347778,869.546814 539.484863,869.822327 
	C534.232361,870.033264 529.142090,866.029785 529.035706,860.540466 
	C528.920715,854.610901 529.863037,848.657837 530.400391,842.720093 
	C530.606140,840.447449 530.967468,838.188843 531.298767,835.604980 
	C529.435608,835.368713 528.024780,835.189758 526.458984,834.991211 
	C526.566650,834.522339 526.533508,833.830811 526.781372,833.708374 
	C533.669312,830.306824 533.676758,823.601990 534.977722,817.368835 
	C535.418640,815.256592 537.008240,812.096863 538.562683,811.774048 
	C541.729797,811.116455 545.281799,811.823914 548.550415,812.539307 
	C549.235657,812.689270 549.893860,815.381592 549.674438,816.760864 
	C549.158081,820.007263 548.104431,823.168152 547.282715,826.308289 
	C549.134827,828.931519 555.357483,825.583557 554.172241,831.929932 
	C553.144775,837.431091 548.848999,834.240112 545.636597,835.720276 
	C545.112671,838.676270 544.515930,842.042969 543.884338,845.852783 
z"/>
<path fill="#A0E0F9" opacity="1.000000" stroke="none" 
	d="
M567.993469,869.812744 
	C559.547363,867.683044 556.909851,863.639404 558.352966,854.502441 
	C559.463928,847.468628 561.421570,840.567017 562.492859,833.529053 
	C563.386597,827.657532 563.885132,821.674744 563.908569,815.738708 
	C563.926208,811.255249 565.917175,808.764099 569.888428,807.924927 
	C574.024353,807.051025 577.831055,808.260254 578.967224,812.729797 
	C579.756409,815.834045 579.875549,819.338623 579.345337,822.505554 
	C577.702942,832.314819 575.589722,842.044922 573.705078,851.814575 
	C573.423950,853.271790 573.251465,854.777649 573.265991,856.258728 
	C573.302246,859.960938 574.620544,861.857483 578.536316,859.383484 
	C577.998291,865.397034 575.573242,867.835205 567.993469,869.812744 
z"/>
<path fill="#A0E0F9" opacity="1.000000" stroke="none" 
	d="
M745.244995,825.218262 
	C751.911865,825.112244 754.130066,829.197266 754.855164,835.429321 
	C758.068970,832.154663 760.397217,829.105225 763.361816,826.918457 
	C767.939026,823.542236 772.634033,826.164856 772.983887,831.924377 
	C773.384216,838.515137 769.887878,843.461182 765.766602,844.314880 
	C762.062195,842.457397 758.488708,839.675537 757.546509,840.385559 
	C755.084290,842.240784 752.743469,845.455505 752.256775,848.438538 
	C751.611328,852.394348 753.098206,856.646790 753.074524,860.768311 
	C753.045471,865.828613 749.051086,869.678101 744.726257,869.475647 
	C739.951965,869.252075 736.934204,865.884155 736.891052,860.410217 
	C736.872803,858.104797 737.210693,855.776367 737.590027,853.492188 
	C738.296509,849.237915 739.385376,845.035889 739.886902,840.761841 
	C740.532043,835.264099 739.704773,834.613342 734.134155,835.563965 
	C735.340576,829.424622 739.414246,826.651245 745.244995,825.218262 
z"/>
<path fill="#E6F2F6" opacity="1.000000" stroke="none" 
	d="
M523.043091,839.548584 
	C524.533386,839.525879 525.630005,839.425598 527.286133,839.274170 
	C526.610901,844.637085 525.984680,849.610291 525.437378,853.956970 
	C522.048767,855.006714 519.304382,855.856873 515.401978,857.065796 
	C516.057373,851.224182 516.452698,845.898438 517.472839,840.695190 
	C517.613708,839.976501 520.847534,839.864136 523.043091,839.548584 
z"/>
<path fill="#E6F2F6" opacity="1.000000" stroke="none" 
	d="
M425.066956,854.739990 
	C421.495056,858.014709 419.812775,857.786133 418.588715,853.882507 
	C417.823273,851.441345 417.715118,848.794189 417.093811,844.856628 
	C421.363892,847.909607 425.473785,849.146240 425.066956,854.739990 
z"/>
<path fill="#E6F2F6" opacity="1.000000" stroke="none" 
	d="
M425.919281,819.027710 
	C430.977386,818.428345 432.075104,821.289124 429.458374,827.718445 
	C425.993958,825.836609 424.196167,823.337463 425.919281,819.027710 
z"/>
<path fill="#FFFFFF" opacity="1.000000" stroke="none" 
	d="
M629.754761,826.251099 
	C631.683838,826.575317 633.089661,826.840820 635.441223,827.285034 
	C633.889038,831.790283 632.467896,835.915222 631.046692,840.040222 
	C630.666260,839.936462 630.285767,839.832703 629.905273,839.728943 
	C628.985718,835.859558 627.979736,832.006165 627.254272,828.100708 
	C627.162048,827.604187 628.536560,826.835205 629.754761,826.251099 
z"/>
<path fill="#FFFFFF" opacity="1.000000" stroke="none" 
	d="
M560.831726,822.674316 
	C558.444946,822.052856 556.157410,821.077942 553.869934,820.102966 
	C553.997803,819.431458 554.125732,818.759888 554.253662,818.088379 
	C556.201050,817.724731 558.148438,817.361084 560.488892,817.008118 
	C560.898315,818.786072 560.914673,820.553467 560.831726,822.674316 
z"/>
<path fill="#FFFFFF" opacity="1.000000" stroke="none" 
	d="
M626.250000,848.250000 
	C626.533325,848.299988 626.566650,848.600037 626.599976,848.900024 
	C626.399963,848.766663 626.200012,848.633362 626.250000,848.250000 
z"/>
<path fill="#FFFFFF" opacity="1.000000" stroke="none" 
	d="
M628.250000,844.250000 
	C628.533264,844.299988 628.566589,844.600037 628.599976,844.900024 
	C628.399963,844.766663 628.200012,844.633362 628.250000,844.250000 
z"/>
<path fill="#E6F2F6" opacity="1.000000" stroke="none" 
	d="
M736.015503,841.014526 
	C736.128967,840.732056 736.283752,840.493896 736.438538,840.255798 
	C736.482605,840.519775 736.526672,840.783813 736.355103,841.097412 
	C736.139526,841.146973 736.056702,841.058777 736.015503,841.014526 
z"/>
<path fill="#FFFFFF" opacity="1.000000" stroke="none" 
	d="
M495.621185,824.044922 
	C495.257996,824.338684 494.897064,824.378479 494.536102,824.418274 
	C494.538544,824.160767 494.540985,823.903259 494.543396,823.645752 
	C494.903412,823.694153 495.263397,823.742554 495.621185,824.044922 
z"/>
<path fill="#3C7289" opacity="1.000000" stroke="none" 
	d="
M710.763184,836.294800 
	C715.277771,841.959595 711.197083,846.700928 709.477600,851.353271 
	C708.317017,854.493469 706.563904,859.148926 702.173462,858.057068 
	C698.039001,857.028931 698.576294,852.333252 699.038147,849.045410 
	C699.598877,845.054321 700.737793,840.989868 702.473816,837.362732 
	C704.152344,833.855713 707.209900,832.784424 710.763184,836.294800 
M709.226868,842.241150 
	C708.734070,840.800659 708.241272,839.360229 707.748474,837.919739 
	C706.553528,838.839478 704.616638,839.554810 704.296692,840.715698 
	C703.133240,844.937378 702.510803,849.308228 701.684387,853.622803 
	C702.565308,853.865662 703.446167,854.108521 704.327087,854.351318 
	C705.900757,850.591125 707.474365,846.830933 709.226868,842.241150 
z"/>
<path fill="#3C7289" opacity="1.000000" stroke="none" 
	d="
M602.413818,836.699829 
	C604.826111,833.377197 607.254211,829.915710 611.400146,832.803711 
	C614.774658,835.154236 613.364807,838.771790 611.895447,841.758972 
	C610.069031,845.472229 604.565918,847.833923 602.510986,845.359009 
	C601.115967,843.678711 602.249207,839.899292 602.413818,836.699829 
M609.836182,838.149170 
	C609.379822,837.164429 608.923462,836.179688 608.467102,835.194946 
	C606.836731,837.403442 605.206360,839.611877 603.575989,841.820374 
	C604.257324,842.343689 604.938660,842.867004 605.619995,843.390381 
	C606.935425,841.881104 608.250793,840.371765 609.836182,838.149170 
z"/>
<path fill="#3C7289" opacity="1.000000" stroke="none" 
	d="
M467.439514,838.652710 
	C467.797394,837.849426 467.972534,837.371643 468.242676,836.955566 
	C470.195129,833.948425 472.294952,830.775757 476.521973,832.124084 
	C480.219727,833.303589 479.399048,836.709778 478.814392,839.364624 
	C477.898560,843.523560 475.162903,846.074951 470.693146,846.000610 
	C469.304047,845.977539 467.927155,845.219055 466.392792,844.750854 
	C466.737274,842.571533 467.019012,840.789185 467.439514,838.652710 
M470.353729,840.717041 
	C470.809662,844.626831 472.987366,843.054260 474.084534,841.513672 
	C475.252167,839.874084 475.545563,837.611816 476.220703,835.621460 
	C475.592987,835.301697 474.965302,834.981873 474.337585,834.662048 
	C473.086914,836.446350 471.836243,838.230591 470.353729,840.717041 
z"/>
<path fill="#E6F2F6" opacity="1.000000" stroke="none" 
	d="
M709.137451,842.655884 
	C707.474365,846.830933 705.900757,850.591125 704.327087,854.351318 
	C703.446167,854.108521 702.565308,853.865662 701.684387,853.622803 
	C702.510803,849.308228 703.133240,844.937378 704.296692,840.715698 
	C704.616638,839.554810 706.553528,838.839478 707.748474,837.919739 
	C708.241272,839.360229 708.734070,840.800659 709.137451,842.655884 
z"/>
<path fill="#E6F2F6" opacity="1.000000" stroke="none" 
	d="
M609.701172,838.505859 
	C608.250793,840.371765 606.935425,841.881104 605.619995,843.390381 
	C604.938660,842.867004 604.257324,842.343689 603.575989,841.820374 
	C605.206360,839.611877 606.836731,837.403442 608.467102,835.194946 
	C608.923462,836.179688 609.379822,837.164429 609.701172,838.505859 
z"/>
<path fill="#E6F2F6" opacity="1.000000" stroke="none" 
	d="
M470.469635,840.365967 
	C471.836243,838.230591 473.086914,836.446350 474.337585,834.662048 
	C474.965302,834.981873 475.592987,835.301697 476.220703,835.621460 
	C475.545563,837.611816 475.252167,839.874084 474.084534,841.513672 
	C472.987366,843.054260 470.809662,844.626831 470.469635,840.365967 
z"/>
</svg>