<svg version="1.1" id="Layer_1" xmlns="http://www.w3.org/2000/svg" xmlns:xlink="http://www.w3.org/1999/xlink" x="0px" y="0px"
	 width="100%" viewBox="0 0 720 1024" enable-background="new 0 0 720 1024" xml:space="preserve">
<path fill="#000000" opacity="1.000000" stroke="none" 
	d="
M351.658386,536.672363 
	C349.529480,540.723877 349.020996,544.723389 349.652863,548.832581 
	C351.654449,549.976318 353.398315,548.837097 355.538727,548.970520 
	C357.208191,540.317871 359.841003,531.873718 359.827545,522.994568 
	C359.822937,519.955017 360.589111,517.593872 363.609100,516.786987 
	C367.050507,515.867493 369.875916,517.223328 371.703796,520.247192 
	C373.055969,522.484192 373.063538,524.958923 372.510498,527.509766 
	C371.346924,532.877075 370.203735,538.253601 369.269958,543.663818 
	C368.859406,546.042297 367.378571,548.521057 370.869019,550.569580 
	C373.018829,551.831238 371.128204,554.200134 369.689209,555.575500 
	C365.471741,559.606506 360.484131,558.405029 355.900452,552.234192 
	C351.924103,556.179932 347.868927,560.173584 341.625519,556.718567 
	C335.520630,553.340271 336.963562,547.869019 337.757721,542.564758 
	C338.025574,540.775818 338.089905,538.956421 338.239227,537.242737 
	C331.608948,533.955688 328.797180,537.699707 330.591736,548.767883 
	C331.986664,550.002014 335.098389,548.039734 335.480225,550.917847 
	C335.834045,553.584656 333.696411,555.032349 331.683136,556.304138 
	C328.263977,558.463928 324.784241,558.689270 321.373169,556.359192 
	C318.019867,554.068542 316.918640,550.888123 317.385468,546.830627 
	C317.766418,543.519958 319.264862,540.203247 317.477509,536.028625 
	C314.649445,543.809937 309.625153,547.791748 301.149933,546.205444 
	C301.618439,549.369751 303.273987,550.036682 305.434326,549.385925 
	C307.157013,548.866882 308.733002,547.854553 310.364777,547.042419 
	C311.559204,546.447937 312.784912,545.624451 314.037140,546.752747 
	C315.382507,547.965088 315.020477,549.420471 314.389496,550.884644 
	C312.373413,555.562805 305.044586,558.857300 298.993195,557.849670 
	C292.518677,556.771545 288.727814,552.787781 286.799347,545.868652 
	C283.529633,552.856628 278.425323,556.391052 271.740997,557.804138 
	C267.399292,558.722046 263.402466,557.751160 259.855072,555.306702 
	C254.509140,551.622925 254.579376,543.738831 259.838898,540.473572 
	C263.393250,538.266846 265.847046,539.247620 266.753906,543.270752 
	C267.009979,544.406799 267.066589,545.590515 267.357452,546.715393 
	C267.853699,548.634705 268.779053,550.469299 271.122498,549.383545 
	C273.212219,548.415283 273.846375,546.376953 272.598877,544.328979 
	C271.192535,542.020203 268.896881,540.543152 266.771912,538.928101 
	C259.282227,533.235779 257.554321,527.522888 261.466217,521.544006 
	C265.609589,515.211304 275.815582,512.801697 282.465332,516.586060 
	C287.528992,519.467773 288.537567,524.462769 284.794983,528.123535 
	C281.260437,531.580811 278.160309,530.858215 276.588013,526.194580 
	C276.158234,524.919861 275.837372,523.371277 274.100983,523.631775 
	C272.218323,523.914185 272.018127,525.569031 272.048676,527.121033 
	C272.111115,530.293701 274.539307,531.713745 276.818939,533.049255 
	C280.585815,535.256104 284.265991,537.497009 286.644409,542.077820 
	C289.684937,535.991882 292.293060,530.251892 298.993652,528.029785 
	C305.611267,525.835266 311.095337,527.186401 315.790009,532.299988 
	C320.724854,531.586914 320.607025,527.462524 321.416473,524.030945 
	C322.576660,519.112366 324.924469,517.556702 329.590240,518.934448 
	C332.357666,519.751587 334.554871,521.128906 333.506622,524.664612 
	C333.320038,525.294067 333.274414,525.978821 333.252228,526.640991 
	C333.157654,529.459290 335.478943,530.439758 337.392120,530.909851 
	C339.601898,531.452820 339.752930,529.179993 340.103546,527.566589 
	C340.421967,526.101379 340.853027,524.657227 341.103821,523.181580 
	C341.851898,518.779846 344.866516,518.028564 348.540344,518.689819 
	C352.221527,519.352478 354.145844,521.438904 353.127808,525.431946 
	C352.756073,526.889954 352.616669,528.071655 353.989990,529.444702 
	C357.611938,533.065918 357.029083,534.755859 351.658386,536.672363 
M304.358826,538.809937 
	C305.123627,537.287048 306.281067,535.781189 304.666504,533.928101 
	C301.678070,535.127869 300.868774,537.325073 300.783325,539.935181 
	C302.345734,541.051880 303.126984,540.103882 304.358826,538.809937 
z"/>
<path fill="#000000" opacity="1.000000" stroke="none" 
	d="
M406.757782,517.526367 
	C414.694061,513.835205 419.155121,517.004028 419.869354,527.238831 
	C422.184418,524.042664 423.607819,521.258240 423.834534,517.975586 
	C424.026855,515.190735 425.401459,514.618774 427.852112,515.331665 
	C431.127716,516.284485 434.351410,517.384399 435.422943,521.059570 
	C436.485413,524.703796 434.046539,527.046631 431.694672,529.176453 
	C429.876617,530.822876 427.769562,532.150146 425.511597,533.826782 
	C427.775818,537.017944 429.101135,540.400330 430.314636,543.839722 
	C430.815002,545.257874 431.474731,546.811096 433.433014,546.377197 
	C435.048126,546.019287 436.657227,545.538940 437.001801,543.439880 
	C437.516083,540.306702 438.405457,537.269714 439.917572,534.453491 
	C442.821442,529.045044 447.398071,526.992188 453.189972,528.763977 
	C455.079102,529.341858 456.633820,529.326538 458.418549,528.491455 
	C461.445343,527.075256 464.351898,527.879456 466.823517,529.844727 
	C469.246094,531.771057 467.490540,534.184448 467.074585,536.334717 
	C466.101257,541.366333 463.195374,546.139343 467.358704,551.401367 
	C469.262421,553.807556 462.746338,558.977356 458.731476,557.564087 
	C454.952087,556.233643 451.919617,556.294006 448.023560,557.526062 
	C443.558350,558.938110 440.367828,555.424255 438.014679,550.972046 
	C435.651764,554.105408 433.693268,557.777527 429.494049,557.845642 
	C425.267059,557.914062 422.138550,555.708618 420.738464,551.669006 
	C419.492584,548.074402 418.620331,544.350220 417.400208,540.036194 
	C414.945374,543.902344 414.938354,547.848511 414.490845,551.556885 
	C414.103149,554.770081 413.844116,557.685486 409.815796,557.932800 
	C406.025024,558.165466 402.294708,554.906006 401.876221,551.047791 
	C401.487671,547.465454 402.701263,544.156738 403.850861,540.842957 
	C405.419189,536.322021 407.792694,532.011902 407.685211,526.993774 
	C406.321564,525.604370 403.646637,528.242798 403.032288,525.618896 
	C402.256927,522.307556 404.337372,519.972595 406.757782,517.526367 
M449.467163,540.341736 
	C449.082306,542.840454 448.581360,545.351746 449.920410,548.006836 
	C455.171387,542.086426 455.846344,538.742798 452.633179,535.837952 
	C450.826324,536.449524 450.363403,538.101624 449.467163,540.341736 
z"/>
<path fill="#000000" opacity="1.000000" stroke="none" 
	d="
M397.343445,546.353271 
	C402.656128,546.845642 400.488739,549.901489 399.284332,551.928284 
	C396.306580,556.939331 391.179077,558.166443 385.890289,557.923340 
	C380.635651,557.681824 376.028351,555.349609 374.003326,550.200867 
	C371.538391,543.933594 373.025330,538.051331 377.485748,533.082153 
	C381.894714,528.170288 387.347412,525.743774 394.008453,527.502258 
	C399.253571,528.886902 402.260742,532.739624 401.828125,537.034546 
	C401.359283,541.689697 397.084381,545.831726 392.179413,546.323669 
	C390.552277,546.486877 388.912415,546.522766 387.184601,546.622314 
	C389.189178,550.731506 389.989624,550.702271 397.343445,546.353271 
M387.098297,540.288452 
	C391.066315,539.762268 391.295593,537.406189 390.201782,533.734436 
	C387.620117,535.372803 386.283569,537.079956 387.098297,540.288452 
z"/>
<path fill="#000000" opacity="1.000000" stroke="none" 
	d="
M495.974548,533.952637 
	C494.168854,541.593872 492.799988,542.436584 486.557770,539.995667 
	C484.154968,539.056091 483.414948,540.627930 483.269958,542.352051 
	C483.047791,544.993958 483.286926,547.671326 483.238617,550.331970 
	C483.154480,554.961731 480.558655,558.093872 477.076202,557.867737 
	C472.761414,557.587585 469.627075,553.703125 470.228516,549.111877 
	C470.595245,546.312561 471.353241,543.566772 471.832367,540.779175 
	C472.153503,538.910950 472.884705,537.229858 470.183746,535.854553 
	C467.521301,534.498840 468.955048,532.172668 470.585876,530.502869 
	C474.099426,526.905518 478.061523,527.041443 484.025909,530.899536 
	C491.072571,526.251831 493.941437,526.889404 495.974548,533.952637 
z"/>
</svg>